<svg width="20" height="20" viewBox="0 0 20 20" fill="none" xmlns="http://www.w3.org/2000/svg">
<path d="M18.3333 4.2444C17.5889 2.71662 15.4445 1.46662 12.95 2.1944C11.758 2.5387 10.7181 3.27706 10 4.28884C9.28195 3.27706 8.24198 2.5387 7.05001 2.1944C4.55001 1.47773 2.41112 2.71662 1.66668 4.2444C0.622234 6.38329 1.05557 8.78884 2.95557 11.3944C4.44446 13.4333 6.57223 15.5 9.66112 17.9C9.75874 17.9761 9.87899 18.0174 10.0028 18.0174C10.1266 18.0174 10.2468 17.9761 10.3445 17.9C13.4278 15.5055 15.5611 13.4555 17.05 11.3944C18.9445 8.78884 19.3778 6.38329 18.3333 4.2444Z" fill="#FF0000"/>
</svg>
