<svg width="40" height="40" viewBox="0 0 40 40" fill="none" xmlns="http://www.w3.org/2000/svg">
<path fill-rule="evenodd" clip-rule="evenodd" d="M30.6666 28V25.3334C30.6666 24.5974 30.0693 24 29.3333 24C28.5973 24 28 24.5974 28 25.3334V26.6667C28 27.4027 27.4026 28 26.6666 28H25.3333C24.5973 28 24 28.5974 24 29.3334C24 30.0694 24.5973 30.6667 25.3333 30.6667H28C29.4733 30.6667 30.6666 29.4734 30.6666 28ZM28 9.33337H25.3333C24.5973 9.33337 24 9.93071 24 10.6667C24 11.4027 24.5973 12 25.3333 12H26.6666C27.4026 12 28 12.5974 28 13.3334V14.6667C28 15.4027 28.5973 16 29.3333 16C30.0693 16 30.6666 15.4027 30.6666 14.6667V12C30.6666 10.5267 29.4733 9.33337 28 9.33337ZM12 30.6667H14.6666C15.4026 30.6667 16 30.0694 16 29.3334C16 28.5974 15.4026 28 14.6666 28H13.3333C12.5973 28 12 27.4027 12 26.6667V25.3334C12 24.5974 11.4026 24 10.6666 24C9.93063 24 9.33329 24.5974 9.33329 25.3334V28C9.33329 29.4734 10.5266 30.6667 12 30.6667ZM10.6666 16C11.4026 16 12 15.4027 12 14.6667V13.3334C12 12.5974 12.5973 12 13.3333 12H14.6666C15.4026 12 16 11.4027 16 10.6667C16 9.93071 15.4026 9.33337 14.6666 9.33337H12C10.5266 9.33337 9.33329 10.5267 9.33329 12V14.6667C9.33329 15.4027 9.93063 16 10.6666 16ZM6.66663 20C6.66663 19.264 7.26396 18.6667 7.99996 18.6667H32C32.736 18.6667 33.3333 19.264 33.3333 20C33.3333 20.736 32.736 21.3334 32 21.3334H7.99996C7.26396 21.3334 6.66663 20.736 6.66663 20Z" fill="white"/>
</svg>
