<svg width="46" height="46" viewBox="0 0 46 46" fill="none" xmlns="http://www.w3.org/2000/svg">
<path d="M36.8 23C36.8 24.2719 36.6896 25.3 35.4177 25.3H25.3V35.4177C25.3 36.6873 24.2719 36.8 23 36.8C21.7281 36.8 20.7 36.6873 20.7 35.4177V25.3H10.5823C9.31268 25.3 9.19998 24.2719 9.19998 23C9.19998 21.7281 9.31268 20.7 10.5823 20.7H20.7V10.5823C20.7 9.31041 21.7281 9.20001 23 9.20001C24.2719 9.20001 25.3 9.31041 25.3 10.5823V20.7H35.4177C36.6896 20.7 36.8 21.7281 36.8 23Z" fill="white"/>
</svg>
