<svg width="16" height="16" viewBox="0 0 16 16" fill="none" xmlns="http://www.w3.org/2000/svg">
<g clip-path="url(#clip0_22_1651)">
<path d="M8 -3.49691e-07C6.41775 -4.18854e-07 4.87103 0.469191 3.55544 1.34824C2.23984 2.22729 1.21446 3.47672 0.608962 4.93853C0.0034606 6.40034 -0.154965 8.00887 0.153716 9.56072C0.462398 11.1126 1.22432 12.538 2.34314 13.6569C3.46196 14.7757 4.88743 15.5376 6.43928 15.8463C7.99112 16.155 9.59966 15.9965 11.0615 15.391C12.5233 14.7855 13.7727 13.7602 14.6518 12.4446C15.5308 11.129 16 9.58225 16 8C15.9977 5.87897 15.1541 3.84547 13.6543 2.34568C12.1545 0.845885 10.121 0.0022938 8 -3.49691e-07V-3.49691e-07ZM8 10.6667C7.51199 10.6672 7.04072 10.4888 6.67533 10.1653C6.45733 9.97133 6.25067 9.78267 6.11533 9.64733L4.2 7.76467C4.13342 7.70439 4.07971 7.63127 4.04209 7.54972C4.00447 7.46816 3.98371 7.37984 3.98107 7.29007C3.97843 7.20029 3.99396 7.11091 4.02672 7.02728C4.05949 6.94366 4.10881 6.86751 4.17173 6.80342C4.23465 6.73933 4.30988 6.68862 4.39288 6.65432C4.47589 6.62003 4.56498 6.60286 4.65478 6.60385C4.74459 6.60483 4.83328 6.62396 4.91551 6.66007C4.99775 6.69618 5.07184 6.74854 5.13333 6.814L7.05333 8.7C7.17866 8.82467 7.36533 8.994 7.55933 9.16667C7.68112 9.27409 7.83793 9.33337 8.00033 9.33337C8.16273 9.33337 8.31954 9.27409 8.44133 9.16667C8.63467 8.99467 8.82133 8.82533 8.94267 8.70467L10.8667 6.814C10.9282 6.74854 11.0023 6.69618 11.0845 6.66007C11.1667 6.62396 11.2554 6.60483 11.3452 6.60385C11.435 6.60286 11.5241 6.62003 11.6071 6.65432C11.6901 6.68862 11.7653 6.73933 11.8283 6.80342C11.8912 6.86751 11.9405 6.94366 11.9733 7.02728C12.006 7.11091 12.0216 7.20029 12.0189 7.29007C12.0163 7.37984 11.9955 7.46816 11.9579 7.54972C11.9203 7.63127 11.8666 7.70439 11.8 7.76467L9.88067 9.65067C9.74733 9.784 9.54267 9.97067 9.32533 10.1633C8.96016 10.4879 8.48853 10.667 8 10.6667Z" fill="#2C2556"/>
</g>
<defs>
<clipPath id="clip0_22_1651">
<rect width="16" height="16" fill="white" transform="translate(16) rotate(90)"/>
</clipPath>
</defs>
</svg>
