<svg width="22" height="22" viewBox="0 0 22 22" fill="none" xmlns="http://www.w3.org/2000/svg">
<path fill-rule="evenodd" clip-rule="evenodd" d="M10.1785 18.1187C10.4652 18.4049 10.9294 18.4049 11.2154 18.1187C11.5022 17.8324 11.5022 17.369 11.2154 17.0835L6.49277 12.3688C6.26177 12.1382 6.4253 11.7443 6.75164 11.7443H17.5998C18.0046 11.7443 18.3332 11.4097 18.3332 11.0056V11.0027C18.3332 10.5986 18.0046 10.2801 17.5998 10.2801H6.75164C6.4253 10.2801 6.26177 9.88549 6.49277 9.65488L11.2382 4.91674C11.5249 4.63049 11.5249 4.16708 11.2382 3.88083C10.9522 3.59531 10.488 3.59531 10.2012 3.88083L4.09624 9.97627C3.5235 10.548 3.5235 11.4749 4.09624 12.0466C4.2451 12.1953 10.2966 18.2365 10.1785 18.1187Z" fill="#4717D7"/>
</svg>
