<svg width="20" height="20" viewBox="0 0 20 20" fill="none" xmlns="http://www.w3.org/2000/svg">
<g clip-path="url(#clip0_1_741)">
<path d="M10 19.0444C10.35 19.0364 10.6858 18.9048 10.9481 18.673C11.2104 18.4412 11.3823 18.1241 11.4333 17.7778H8.51112C8.56361 18.1335 8.74352 18.458 9.0174 18.691C9.29128 18.924 9.64047 19.0496 10 19.0444Z" fill="#3570EC" fill-opacity="0.54"/>
<path d="M18.25 15.6278L18.0611 15.4611C17.5252 14.9837 17.0562 14.4361 16.6667 13.8333C16.2412 13.0014 15.9862 12.0929 15.9167 11.1611V8.41666C15.9144 8.0833 15.8847 7.7507 15.8278 7.42222C14.8867 7.2288 14.0414 6.71612 13.435 5.97099C12.8286 5.22586 12.4983 4.29405 12.5 3.33334V2.98334C11.92 2.69789 11.2968 2.51018 10.6556 2.42778V1.72778C10.6556 1.53108 10.5774 1.34243 10.4383 1.20334C10.2992 1.06426 10.1106 0.986116 9.91389 0.986116C9.71719 0.986116 9.52854 1.06426 9.38945 1.20334C9.25036 1.34243 9.17222 1.53108 9.17222 1.72778V2.45556C7.73651 2.65809 6.42255 3.37319 5.47291 4.46885C4.52327 5.56451 4.00208 6.96674 4.00556 8.41666V11.1611C3.93598 12.0929 3.68099 13.0014 3.25556 13.8333C2.87272 14.4346 2.41123 14.9821 1.88334 15.4611L1.69445 15.6278V17.1944H18.25V15.6278Z" fill="#3570EC" fill-opacity="0.54"/>
<path d="M16.6667 6.11111C18.2008 6.11111 19.4444 4.86746 19.4444 3.33333C19.4444 1.79921 18.2008 0.555558 16.6667 0.555558C15.1325 0.555558 13.8889 1.79921 13.8889 3.33333C13.8889 4.86746 15.1325 6.11111 16.6667 6.11111Z" fill="#3570EC" fill-opacity="0.54"/>
</g>
<defs>
<clipPath id="clip0_1_741">
<rect width="19.5556" height="19.5556" fill="white" transform="scale(1.02273)"/>
</clipPath>
</defs>
</svg>
