<svg width="24" height="24" viewBox="0 0 24 24" fill="none" xmlns="http://www.w3.org/2000/svg">
<path fill-rule="evenodd" clip-rule="evenodd" d="M12.8962 19.7658C12.5834 20.0781 12.077 20.0781 11.765 19.7658C11.4522 19.4535 11.4522 18.948 11.765 18.6365L16.917 13.4932C17.169 13.2416 16.9906 12.8119 16.6346 12.8119H4.8002C4.3586 12.8119 4.0002 12.4469 4.0002 12.0061V12.0029C4.0002 11.562 4.3586 11.2146 4.8002 11.2146H16.6346C16.9906 11.2146 17.169 10.7842 16.917 10.5326L11.7402 5.3637C11.4274 5.05143 11.4274 4.54588 11.7402 4.23361C12.0522 3.92213 12.5586 3.92213 12.8714 4.23361L19.5314 10.8832C20.1562 11.5069 20.1562 12.518 19.5314 13.1418C19.369 13.3039 12.7674 19.8944 12.8962 19.7658Z" fill="white"/>
</svg>
