<svg width="32" height="32" viewBox="0 0 32 32" fill="none" xmlns="http://www.w3.org/2000/svg">
<path fill-rule="evenodd" clip-rule="evenodd" d="M21.3581 14.2383L17.7648 10.6449L20.3621 8.04626L23.9541 11.6383L21.3581 14.2383ZM12.1061 23.4996L8.1368 23.861L8.4888 19.9196L15.9781 12.4303L19.5728 16.025L12.1061 23.4996ZM25.8715 9.78361L25.8702 9.78228L22.2195 6.13161C21.2315 5.14628 19.5342 5.09961 18.5982 6.03961L6.6035 18.0343C6.16883 18.4676 5.8995 19.0436 5.8435 19.6529L5.33817 25.2129C5.3035 25.6063 5.4435 25.9956 5.7235 26.2756C5.9755 26.5276 6.3155 26.6663 6.66617 26.6663C6.7075 26.6663 6.7475 26.6649 6.7875 26.6609L12.3475 26.1556C12.9582 26.0996 13.5328 25.8316 13.9662 25.3983L25.9622 13.4023C26.9328 12.4289 26.8915 10.8049 25.8715 9.78361Z" fill="white"/>
<mask id="mask0_1_850" style="mask-type:luminance" maskUnits="userSpaceOnUse" x="5" y="5" width="22" height="22">
<path fill-rule="evenodd" clip-rule="evenodd" d="M21.3581 14.2383L17.7648 10.6449L20.3621 8.04626L23.9541 11.6383L21.3581 14.2383ZM12.1061 23.4996L8.1368 23.861L8.4888 19.9196L15.9781 12.4303L19.5728 16.025L12.1061 23.4996ZM25.8715 9.78361L25.8702 9.78228L22.2195 6.13161C21.2315 5.14628 19.5342 5.09961 18.5982 6.03961L6.6035 18.0343C6.16883 18.4676 5.8995 19.0436 5.8435 19.6529L5.33817 25.2129C5.3035 25.6063 5.4435 25.9956 5.7235 26.2756C5.9755 26.5276 6.3155 26.6663 6.66617 26.6663C6.7075 26.6663 6.7475 26.6649 6.7875 26.6609L12.3475 26.1556C12.9582 26.0996 13.5328 25.8316 13.9662 25.3983L25.9622 13.4023C26.9328 12.4289 26.8915 10.8049 25.8715 9.78361Z" fill="white"/>
</mask>
<g mask="url(#mask0_1_850)">
</g>
</svg>
