<svg width="19" height="19" viewBox="0 0 19 19" fill="none" xmlns="http://www.w3.org/2000/svg">
<path d="M14.3922 12.5039C16.9216 8.93213 16.0757 3.98629 12.5039 1.45747C8.93213 -1.07134 3.98629 -0.225986 1.45747 3.34638C-1.07134 6.91814 -0.225986 11.8634 3.34638 14.3922C5.89574 16.1971 9.26629 16.3361 11.9552 14.7481L16.1393 18.424C16.7702 19.0881 17.8198 19.1147 18.4839 18.4839C19.1479 17.8536 19.1745 16.804 18.5443 16.14C18.5243 16.1188 18.505 16.0995 18.4839 16.0795L14.3922 12.5039ZM7.92 13.0453C5.09752 13.0459 2.8092 10.7594 2.80738 7.93692C2.80678 5.11444 5.09329 2.82612 7.91637 2.82491C10.7352 2.8237 13.0223 5.10658 13.0278 7.92544C13.0326 10.7485 10.7473 13.0405 7.92363 13.0453H7.92Z" fill="white"/>
</svg>
