<svg width="18" height="18" viewBox="0 0 18 18" fill="none" xmlns="http://www.w3.org/2000/svg">
<path d="M13.6347 11.8458C16.031 8.46202 15.2296 3.77648 11.8458 1.38076C8.46202 -1.01496 3.77648 -0.214092 1.38076 3.17026C-1.01496 6.55403 -0.214092 11.239 3.17026 13.6347C5.58544 15.3446 8.77859 15.4763 11.326 13.9719L15.2899 17.4544C15.8875 18.0835 16.8819 18.1087 17.511 17.511C18.1402 16.914 18.1653 15.9196 17.5683 15.2905C17.5494 15.2704 17.5311 15.2521 17.511 15.2332L13.6347 11.8458ZM7.50316 12.3587C4.82923 12.3593 2.66134 10.1931 2.65963 7.51919C2.65905 4.84526 4.82522 2.67737 7.49972 2.67623C10.1702 2.67508 12.337 4.83781 12.3421 7.50831C12.3467 10.1828 10.1817 12.3541 7.50659 12.3587H7.50316Z" fill="#D1DFFD"/>
</svg>
