<svg width="20" height="20" viewBox="0 0 20 20" fill="none" xmlns="http://www.w3.org/2000/svg">
<g clip-path="url(#clip0_1_749)">
<path d="M9.99999 0.00102997C4.47773 0.00102997 0 4.47788 0 10.0006C0 15.5233 4.47729 20.0001 9.99999 20.0001C15.5231 20.0001 20 15.5233 20 10.0006C20 4.47788 15.5231 0.00102997 9.99999 0.00102997ZM9.99999 2.99101C11.8273 2.99101 13.308 4.47217 13.308 6.29857C13.308 8.12542 11.8273 9.60613 9.99999 9.60613C8.17359 9.60613 6.69287 8.12542 6.69287 6.29857C6.69287 4.47217 8.17359 2.99101 9.99999 2.99101ZM9.9978 17.3857C8.17534 17.3857 6.50619 16.722 5.21874 15.6234C4.90512 15.3559 4.72415 14.9637 4.72415 14.5521C4.72415 12.6998 6.22331 11.2173 8.07607 11.2173H11.9248C13.778 11.2173 15.2714 12.6998 15.2714 14.5521C15.2714 14.9641 15.0914 15.3555 14.7773 15.623C13.4903 16.722 11.8207 17.3857 9.9978 17.3857Z" fill="#3570EC" fill-opacity="0.54"/>
</g>
<defs>
<clipPath id="clip0_1_749">
<rect width="19.5556" height="19.5556" fill="white" transform="scale(1.02273)"/>
</clipPath>
</defs>
</svg>
