<svg width="20" height="20" viewBox="0 0 20 20" fill="none" xmlns="http://www.w3.org/2000/svg">
<path d="M14.4444 6.85557C13.849 6.48075 13.3583 5.96106 13.0182 5.34508C12.6782 4.7291 12.4999 4.03696 12.5 3.33335H2.17776C2.07806 3.33489 1.97902 3.34983 1.88331 3.37779L9.91108 11.3722L14.4444 6.85557Z" fill="#3570EC" fill-opacity="0.54"/>
<path d="M16.6666 7.49999C16.2907 7.49672 15.9169 7.44253 15.5555 7.33887L10.7166 12.1611C10.5085 12.368 10.2268 12.4842 9.9333 12.4842C9.63976 12.4842 9.35815 12.368 9.14997 12.1611L1.11108 4.16665C1.08644 4.25723 1.07337 4.35057 1.0722 4.44443V15.5555C1.0722 15.8502 1.18926 16.1328 1.39763 16.3412C1.60601 16.5496 1.88862 16.6666 2.18331 16.6666H17.7389C18.0335 16.6666 18.3162 16.5496 18.5245 16.3412C18.7329 16.1328 18.85 15.8502 18.85 15.5555V6.88332C18.1938 7.28822 17.4376 7.5018 16.6666 7.49999ZM2.94442 15.5555H2.1722V14.7611L6.21108 10.7555L6.99441 11.5389L2.94442 15.5555ZM17.7277 15.5555H16.95L12.9 11.5389L13.6833 10.7555L17.7222 14.7611L17.7277 15.5555Z" fill="#3570EC" fill-opacity="0.54"/>
<path d="M16.6666 6.11111C18.2008 6.11111 19.4444 4.86746 19.4444 3.33333C19.4444 1.79921 18.2008 0.555558 16.6666 0.555558C15.1325 0.555558 13.8889 1.79921 13.8889 3.33333C13.8889 4.86746 15.1325 6.11111 16.6666 6.11111Z" fill="#3570EC" fill-opacity="0.54"/>
</svg>
