<svg width="22" height="22" viewBox="0 0 22 22" fill="none" xmlns="http://www.w3.org/2000/svg">
<path fill-rule="evenodd" clip-rule="evenodd" d="M16.8667 15.8952C16.8667 16.28 16.5052 16.5873 16.1004 16.5873H13.9004C13.4963 16.5873 13.2 16.28 13.2 15.8952V13.7999C13.2 13.4151 13.4963 13.0952 13.9004 13.0952H16.1004C16.5052 13.0952 16.8667 13.4151 16.8667 13.7999V15.8952ZM16.1004 11.6984H13.9004C12.6852 11.6984 11.7334 12.6427 11.7334 13.7999V15.8952C11.7334 17.0524 12.6852 17.9841 13.9004 17.9841H16.1004C17.3155 17.9841 18.3334 17.0524 18.3334 15.8952V13.7999C18.3334 12.6427 17.3155 11.6984 16.1004 11.6984ZM8.80002 15.8952C8.80002 16.28 8.43849 16.5873 8.03369 16.5873H5.83369C5.42962 16.5873 5.13335 16.28 5.13335 15.8952V13.7999C5.13335 13.4151 5.42962 13.0952 5.83369 13.0952H8.03369C8.43849 13.0952 8.80002 13.4151 8.80002 13.7999V15.8952ZM8.03369 11.6984H5.83369C4.61855 11.6984 3.66669 12.6427 3.66669 13.7999V15.8952C3.66669 17.0524 4.61855 17.9841 5.83369 17.9841H8.03369C9.24882 17.9841 10.2667 17.0524 10.2667 15.8952V13.7999C10.2667 12.6427 9.24882 11.6984 8.03369 11.6984ZM16.8667 8.21263C16.8667 8.59746 16.5052 8.90476 16.1004 8.90476H13.9004C13.4963 8.90476 13.2 8.59746 13.2 8.21263V6.11739C13.2 5.73257 13.4963 5.41269 13.9004 5.41269H16.1004C16.5052 5.41269 16.8667 5.73257 16.8667 6.11739V8.21263ZM16.1004 4.01587H13.9004C12.6852 4.01587 11.7334 4.96012 11.7334 6.11739V8.21263C11.7334 9.3699 12.6852 10.3016 13.9004 10.3016H16.1004C17.3155 10.3016 18.3334 9.3699 18.3334 8.21263V6.11739C18.3334 4.96012 17.3155 4.01587 16.1004 4.01587ZM8.80002 8.21263C8.80002 8.59746 8.43849 8.90476 8.03369 8.90476H5.83369C5.42962 8.90476 5.13335 8.59746 5.13335 8.21263V6.11739C5.13335 5.73257 5.42962 5.41269 5.83369 5.41269H8.03369C8.43849 5.41269 8.80002 5.73257 8.80002 6.11739V8.21263ZM8.03369 4.01587H5.83369C4.61855 4.01587 3.66669 4.96012 3.66669 6.11739V8.21263C3.66669 9.3699 4.61855 10.3016 5.83369 10.3016H8.03369C9.24882 10.3016 10.2667 9.3699 10.2667 8.21263V6.11739C10.2667 4.96012 9.24882 4.01587 8.03369 4.01587Z" fill="#232323"/>
</svg>
