<svg width="24" height="24" viewBox="0 0 24 24" fill="none" xmlns="http://www.w3.org/2000/svg">
<path fill-rule="evenodd" clip-rule="evenodd" d="M5 4C4.44772 4 4 4.44772 4 5V9C4 9.55228 4.44772 10 5 10C5.55228 10 6 9.55228 6 9V7C6 6.44772 6.44772 6 7 6H9C9.55228 6 10 5.55228 10 5C10 4.44772 9.55228 4 9 4H5ZM10 9C9.44772 9 9 9.44772 9 10V14C9 14.5523 9.44772 15 10 15H14C14.5523 15 15 14.5523 15 14V10C15 9.44772 14.5523 9 14 9H10ZM13 12C13 11.4477 12.5523 11 12 11C11.4477 11 11 11.4477 11 12C11 12.5523 11.4477 13 12 13C12.5523 13 13 12.5523 13 12ZM5 14C4.44772 14 4 14.4477 4 15V19C4 19.5523 4.44772 20 5 20H9C9.55228 20 10 19.5523 10 19C10 18.4477 9.55228 18 9 18H7C6.44772 18 6 17.5523 6 17V15C6 14.4477 5.55228 14 5 14ZM19 10C19.5523 10 20 9.55228 20 9V5C20 4.44772 19.5523 4 19 4H15C14.4477 4 14 4.44772 14 5C14 5.55228 14.4477 6 15 6H17C17.5523 6 18 6.44772 18 7V9C18 9.55228 18.4477 10 19 10ZM19 20C19.5523 20 20 19.5523 20 19V15C20 14.4477 19.5523 14 19 14C18.4477 14 18 14.4477 18 15V17C18 17.5523 17.5523 18 17 18H15C14.4477 18 14 18.4477 14 19C14 19.5523 14.4477 20 15 20H19Z" fill="#1C162E"/>
</svg>
