<svg width="16" height="16" viewBox="0 0 16 16" fill="none" xmlns="http://www.w3.org/2000/svg">
<g clip-path="url(#clip0_1_791)">
<path d="M0 8.01561C0 6.56516 0.359141 5.22402 1.07742 3.99219C1.7957 2.76035 2.76903 1.78703 3.99739 1.07222C5.22576 0.357406 6.56169 0 8.0052 0C9.08783 0 10.1219 0.211668 11.1073 0.635003C12.0928 1.05834 12.943 1.62741 13.6578 2.34222C14.3726 3.05703 14.9416 3.90891 15.365 4.89785C15.7883 5.88679 16 6.92604 16 8.01561C16 9.09824 15.7883 10.134 15.365 11.123C14.9416 12.1119 14.3726 12.962 13.6578 13.6734C12.943 14.3847 12.0928 14.9503 11.1073 15.3702C10.1219 15.7901 9.08783 16 8.0052 16C6.91563 16 5.87638 15.7883 4.88744 15.365C3.8985 14.9416 3.04662 14.3726 2.33181 13.6578C1.617 12.943 1.04966 12.0945 0.629798 11.1125C0.209933 10.1305 0 9.09824 0 8.01561ZM1.75927 8.01561C1.75927 9.70201 2.37345 11.1663 3.60182 12.4086C4.83018 13.6369 6.29798 14.2511 8.0052 14.2511C9.12947 14.2511 10.1705 13.9718 11.1282 13.4131C12.0859 12.8545 12.8458 12.0963 13.4079 11.1386C13.9701 10.1809 14.2511 9.13988 14.2511 8.01561C14.2511 6.89134 13.9701 5.84862 13.4079 4.88744C12.8458 3.92626 12.0859 3.16634 11.1282 2.60768C10.1705 2.04901 9.12947 1.76968 8.0052 1.76968C6.88093 1.76968 5.83994 2.04901 4.88223 2.60768C3.92452 3.16634 3.1646 3.92626 2.60247 4.88744C2.04034 5.84862 1.75927 6.89134 1.75927 8.01561ZM7.39101 8.01561V3.27911C7.39101 3.11255 7.44827 2.97202 7.56278 2.85751C7.67729 2.743 7.81782 2.68575 7.98438 2.68575C8.15094 2.68575 8.29147 2.743 8.40598 2.85751C8.52049 2.97202 8.57774 3.11255 8.57774 3.27911V7.65126L11.1282 9.13988C11.267 9.22315 11.3572 9.34287 11.3988 9.49902C11.4405 9.65516 11.4196 9.80264 11.3364 9.94144C11.2253 10.1427 11.0553 10.2433 10.8263 10.2433C10.7083 10.2433 10.6077 10.2156 10.5244 10.16L7.80741 8.57774C7.68943 8.54304 7.59054 8.47364 7.51073 8.36954C7.43092 8.26545 7.39101 8.14747 7.39101 8.01561Z" fill="#AEB3C2"/>
</g>
<defs>
<clipPath id="clip0_1_791">
<rect width="15.1538" height="15.1538" fill="white" transform="scale(1.05584)"/>
</clipPath>
</defs>
</svg>
