<svg width="22" height="22" viewBox="0 0 22 22" fill="none" xmlns="http://www.w3.org/2000/svg">
<path fill-rule="evenodd" clip-rule="evenodd" d="M17.4166 10.0833H6.54041L9.87066 6.0866C10.1952 5.69793 10.142 5.11951 9.75332 4.79593C9.36374 4.47143 8.78624 4.5246 8.46266 4.91327L3.87933 10.4133C3.84358 10.4563 3.82525 10.5068 3.79867 10.5544C3.77667 10.5929 3.75008 10.6259 3.73358 10.6681C3.69233 10.7735 3.66758 10.8844 3.66758 10.9963C3.66758 10.9972 3.66667 10.999 3.66667 10.9999C3.66667 11.0008 3.66758 11.0027 3.66758 11.0036C3.66758 11.1154 3.69233 11.2263 3.73358 11.3318C3.75008 11.3739 3.77667 11.4069 3.79867 11.4454C3.82525 11.4931 3.84358 11.5435 3.87933 11.5866L8.46266 17.0866C8.64416 17.3038 8.90449 17.4166 9.16666 17.4166C9.37382 17.4166 9.58191 17.3469 9.75332 17.2039C10.142 16.8803 10.1952 16.3019 9.87066 15.9132L6.54041 11.9166H17.4166C17.9226 11.9166 18.3333 11.5059 18.3333 10.9999C18.3333 10.4939 17.9226 10.0833 17.4166 10.0833Z" fill="#6A515E"/>
<mask id="mask0_1_773" style="mask-type:luminance" maskUnits="userSpaceOnUse" x="3" y="4" width="16" height="14">
<path fill-rule="evenodd" clip-rule="evenodd" d="M17.4166 10.0833H6.54041L9.87066 6.0866C10.1952 5.69793 10.142 5.11951 9.75332 4.79593C9.36374 4.47143 8.78624 4.5246 8.46266 4.91327L3.87933 10.4133C3.84358 10.4563 3.82525 10.5068 3.79867 10.5544C3.77667 10.5929 3.75008 10.6259 3.73358 10.6681C3.69233 10.7735 3.66758 10.8844 3.66758 10.9963C3.66758 10.9972 3.66667 10.999 3.66667 10.9999C3.66667 11.0008 3.66758 11.0027 3.66758 11.0036C3.66758 11.1154 3.69233 11.2263 3.73358 11.3318C3.75008 11.3739 3.77667 11.4069 3.79867 11.4454C3.82525 11.4931 3.84358 11.5435 3.87933 11.5866L8.46266 17.0866C8.64416 17.3038 8.90449 17.4166 9.16666 17.4166C9.37382 17.4166 9.58191 17.3469 9.75332 17.2039C10.142 16.8803 10.1952 16.3019 9.87066 15.9132L6.54041 11.9166H17.4166C17.9226 11.9166 18.3333 11.5059 18.3333 10.9999C18.3333 10.4939 17.9226 10.0833 17.4166 10.0833Z" fill="white"/>
</mask>
<g mask="url(#mask0_1_773)">
</g>
</svg>
