<svg width="16" height="16" viewBox="0 0 16 16" fill="none" xmlns="http://www.w3.org/2000/svg">
<path fill-rule="evenodd" clip-rule="evenodd" d="M13.0967 8.32018C12.9568 8.32018 12.8107 8.27556 12.6708 8.24369C12.3876 8.1811 12.1094 8.09801 11.8382 7.99507C11.2275 7.77227 10.5476 8.04722 10.2618 8.63254L10.122 8.9194C9.50291 8.57401 8.93403 8.14503 8.43127 7.64447C7.93216 7.14024 7.50443 6.5697 7.16004 5.94881L7.427 5.77032C8.01062 5.48373 8.28477 4.80184 8.06261 4.1894C7.96169 3.91683 7.87888 3.63786 7.81472 3.35432C7.78294 3.21407 7.75752 3.06746 7.73845 2.92084C7.57898 1.99318 6.77011 1.31986 5.8316 1.33355H3.92476C3.37046 1.32833 2.84134 1.56527 2.4752 1.98267C2.10905 2.40007 1.94213 2.95659 2.01792 3.50731C2.71451 9.00116 7.03788 13.3214 12.5183 14H12.7598C13.2285 14.0007 13.6811 13.8282 14.031 13.5155C14.4378 13.1507 14.6692 12.6285 14.6666 12.0812V10.1688C14.6506 9.2557 13.993 8.48138 13.0967 8.32018ZM13.3333 12.0345C13.3331 12.2146 13.2551 12.386 13.1192 12.5048C12.9773 12.6278 12.7894 12.6848 12.6027 12.6616C7.75022 12.0422 3.93649 8.22763 3.33735 3.39418C3.3171 3.20858 3.37399 3.0228 3.49482 2.88002C3.61422 2.74472 3.7863 2.66706 3.96722 2.66683H5.85682C6.15896 2.66014 6.42329 2.86802 6.48669 3.16218C6.51188 3.33357 6.54337 3.50286 6.58116 3.67007C6.65393 4.0006 6.75076 4.32542 6.8709 4.64195L5.98909 5.04952C5.83681 5.11907 5.71864 5.24615 5.66072 5.40265C5.6028 5.55916 5.6099 5.73218 5.68046 5.88346C6.58696 7.81642 8.1478 9.3702 10.0895 10.2726C10.2429 10.3353 10.4149 10.3353 10.5682 10.2726C10.7269 10.2161 10.8562 10.0987 10.9272 9.94656L11.3178 9.06873C11.6434 9.18465 11.9757 9.28097 12.313 9.35716C12.4809 9.39478 12.651 9.42614 12.8231 9.45122C13.1186 9.51432 13.3275 9.77746 13.3207 10.0782L13.3333 12.0345Z" fill="#C6C4CA"/>
</svg>
