<svg width="16" height="16" viewBox="0 0 16 16" fill="none" xmlns="http://www.w3.org/2000/svg">
<path d="M4.6667 11.342L7.6087 11.332L14.03 4.97198C14.282 4.71998 14.4207 4.38532 14.4207 4.02932C14.4207 3.67332 14.282 3.33865 14.03 3.08665L12.9727 2.02932C12.4687 1.52532 11.5894 1.52798 11.0894 2.02732L4.6667 8.38865V11.342ZM12.03 2.97198L13.0894 4.02732L12.0247 5.08198L10.9674 4.02532L12.03 2.97198ZM6.00004 8.94465L10.02 4.96265L11.0774 6.01998L7.05804 10.0006L6.00004 10.004V8.94465Z" fill="white"/>
<path d="M3.33343 14H12.6668C13.4021 14 14.0001 13.402 14.0001 12.6666V6.88796L12.6668 8.22129V12.6666H5.43876C5.42143 12.6666 5.40343 12.6733 5.3861 12.6733C5.3641 12.6733 5.3421 12.6673 5.31943 12.6666H3.33343V3.33329H7.8981L9.23143 1.99996H3.33343C2.5981 1.99996 2.0001 2.59796 2.0001 3.33329V12.6666C2.0001 13.402 2.5981 14 3.33343 14Z" fill="white"/>
</svg>
