<svg width="27" height="27" viewBox="0 0 27 27" fill="none" xmlns="http://www.w3.org/2000/svg">
<path d="M21.6 13.5C21.6 14.2465 21.5352 14.85 20.7887 14.85H14.85V20.7886C14.85 21.5338 14.2466 21.6 13.5 21.6C12.7535 21.6 12.15 21.5338 12.15 20.7886V14.85H6.21136C5.46616 14.85 5.40001 14.2465 5.40001 13.5C5.40001 12.7534 5.46616 12.15 6.21136 12.15H12.15V6.21131C12.15 5.46476 12.7535 5.39996 13.5 5.39996C14.2466 5.39996 14.85 5.46476 14.85 6.21131V12.15H20.7887C21.5352 12.15 21.6 12.7534 21.6 13.5Z" fill="#598DFA"/>
</svg>
