<svg width="50" height="42" viewBox="0 0 50 42" fill="none" xmlns="http://www.w3.org/2000/svg">
<path d="M1.01584 35.9534V36.6669C1.01584 37.2796 1.12871 37.7432 1.35445 38.0576C1.58019 38.364 1.93896 38.5171 2.43075 38.5171C2.91448 38.5171 3.4345 38.3922 3.99079 38.1422L4.29312 38.9767C3.63202 39.275 2.99107 39.4241 2.37029 39.4241C1.59631 39.4241 1.00777 39.1782 0.604665 38.6864C0.201555 38.1947 0 37.5215 0 36.6669V35.9534C0 35.0988 0.201555 34.4256 0.604665 33.9338C1.00777 33.442 1.59631 33.1961 2.37029 33.1961C2.66052 33.1961 2.95883 33.2364 3.26519 33.317C3.57961 33.3896 3.89404 33.4944 4.20847 33.6314L3.90613 34.478C3.64008 34.3651 3.38209 34.2764 3.13216 34.2119C2.8903 34.1474 2.65649 34.1152 2.43075 34.1152C1.93896 34.1152 1.58019 34.2724 1.35445 34.5868C1.12871 34.8932 1.01584 35.3487 1.01584 35.9534Z" fill="#1C162E"/>
<path d="M8.7461 34.1273C8.52035 34.1273 8.2543 34.1837 7.94794 34.2966C7.64964 34.4094 7.28684 34.6392 6.85954 34.9859V39.3032H5.86789V30.3542H6.85954V34.1152C7.27878 33.7604 7.6577 33.5186 7.99631 33.3896C8.33492 33.2606 8.66547 33.1961 8.98796 33.1961C9.54425 33.1961 9.96752 33.3735 10.2578 33.7282C10.5561 34.0749 10.7052 34.5707 10.7052 35.2157V39.3032H9.71356V35.3608C9.71356 34.5384 9.39107 34.1273 8.7461 34.1273Z" fill="#1C162E"/>
<path d="M17.2754 39.3637C16.9045 39.3637 16.6062 39.279 16.3805 39.1097C16.1628 38.9404 16.0096 38.7308 15.9209 38.4809C15.5259 38.8275 15.1671 39.0734 14.8446 39.2185C14.5221 39.3556 14.1996 39.4241 13.8771 39.4241C13.3531 39.4241 12.9661 39.2548 12.7162 38.9162C12.4663 38.5776 12.3413 38.1624 12.3413 37.6706C12.3413 37.3401 12.4018 37.0458 12.5227 36.7878C12.6436 36.5298 12.8492 36.3283 13.1395 36.1831C13.4297 36.0299 13.8207 35.9534 14.3125 35.9534C14.5302 35.9534 14.768 35.9695 15.026 36.0017C15.284 36.0259 15.546 36.0582 15.8121 36.0985V35.2882C15.8121 34.8367 15.7113 34.5304 15.5097 34.3691C15.3162 34.1998 15.03 34.1152 14.6511 34.1152C14.1351 34.1152 13.5587 34.2563 12.9218 34.5384L12.6074 33.7161C12.9782 33.5468 13.3329 33.4178 13.6716 33.3291C14.0102 33.2404 14.3528 33.1961 14.6995 33.1961C15.2638 33.1961 15.6952 33.2888 15.9935 33.4742C16.2918 33.6597 16.4974 33.9056 16.6102 34.2119C16.7231 34.5183 16.7795 34.8529 16.7795 35.2157V37.8036C16.7795 37.9891 16.8158 38.1463 16.8884 38.2753C16.9609 38.3962 17.1061 38.4567 17.3237 38.4567H17.4568V39.3637H17.2754ZM13.3209 37.6585C13.3209 37.9326 13.3854 38.1543 13.5143 38.3236C13.6433 38.4929 13.8288 38.5776 14.0706 38.5776C14.2803 38.5776 14.5221 38.5171 14.7962 38.3962C15.0704 38.2672 15.409 38.0133 15.8121 37.6343V36.8725C15.2638 36.7838 14.7801 36.7394 14.3609 36.7394C13.99 36.7394 13.724 36.816 13.5627 36.9692C13.4015 37.1224 13.3209 37.3521 13.3209 37.6585Z" fill="#1C162E"/>
<path d="M18.9704 37.852V30.3542H19.9621V37.8036C19.9621 38.0213 19.9943 38.1866 20.0588 38.2995C20.1314 38.4043 20.2725 38.4567 20.4821 38.4567H20.6756V39.3637H20.3974C19.8653 39.3637 19.4945 39.2226 19.2848 38.9404C19.0752 38.6582 18.9704 38.2954 18.9704 37.852Z" fill="#1C162E"/>
<path d="M22.28 37.852V30.3542H23.2717V37.8036C23.2717 38.0213 23.3039 38.1866 23.3684 38.2995C23.441 38.4043 23.582 38.4567 23.7917 38.4567H23.9852V39.3637H23.707C23.1749 39.3637 22.804 39.2226 22.5944 38.9404C22.3848 38.6582 22.28 38.2954 22.28 37.852Z" fill="#1C162E"/>
<path d="M29.9432 38.9525C29.5804 39.1299 29.2176 39.2508 28.8548 39.3153C28.492 39.3879 28.1574 39.4241 27.851 39.4241C26.9884 39.4241 26.3434 39.1782 25.9161 38.6864C25.4969 38.1947 25.2873 37.5215 25.2873 36.6669V35.9413C25.2873 35.1109 25.4969 34.4457 25.9161 33.9459C26.3434 33.446 26.944 33.1961 27.718 33.1961C28.1292 33.1961 28.5041 33.2807 28.8427 33.45C29.1894 33.6113 29.4635 33.8612 29.665 34.1998C29.8747 34.5304 29.9795 34.9577 29.9795 35.4817C29.9795 35.8203 29.9311 36.2073 29.8343 36.6427H26.2668V36.6669C26.2668 37.2796 26.3918 37.7432 26.6417 38.0576C26.8997 38.372 27.3109 38.5292 27.8752 38.5292C28.1332 38.5292 28.4154 38.497 28.7218 38.4325C29.0362 38.368 29.3425 38.2672 29.6408 38.1302L29.9432 38.9525ZM27.718 34.0668C27.2504 34.0668 26.8957 34.22 26.6538 34.5263C26.42 34.8247 26.291 35.2479 26.2668 35.7961H28.9757C28.9999 35.651 29.012 35.514 29.012 35.385C29.012 34.9335 28.883 34.6029 28.625 34.3933C28.3751 34.1756 28.0728 34.0668 27.718 34.0668Z" fill="#1C162E"/>
<path d="M34.6947 34.1273C34.469 34.1273 34.2029 34.1837 33.8966 34.2966C33.5983 34.4094 33.2355 34.6392 32.8082 34.9859V39.3032H31.8165V33.317H32.7598V34.1515C33.1871 33.7887 33.5741 33.5387 33.9207 33.4017C34.2755 33.2646 34.6141 33.1961 34.9366 33.1961C35.4929 33.1961 35.9161 33.3735 36.2064 33.7282C36.5047 34.0749 36.6538 34.5707 36.6538 35.2157V39.3032H35.6622V35.3608C35.6622 34.5384 35.3397 34.1273 34.6947 34.1273Z" fill="#1C162E"/>
<path d="M43.6351 40.053C43.6351 40.6415 43.3933 41.1132 42.9096 41.4679C42.4339 41.8226 41.7768 42 40.9383 42C40.5191 42 40.0797 41.9436 39.6202 41.8307C39.1687 41.7178 38.7414 41.5364 38.3383 41.2865L38.6769 40.5125C39.08 40.7383 39.467 40.8955 39.8379 40.9842C40.2168 41.0809 40.5836 41.1293 40.9383 41.1293C41.4866 41.1293 41.9098 41.0406 42.2081 40.8632C42.5064 40.6859 42.6556 40.448 42.6556 40.1497C42.6556 39.9321 42.583 39.7627 42.4379 39.6418C42.2928 39.5289 42.059 39.4725 41.7365 39.4725H40.3458C39.8217 39.4725 39.4428 39.3475 39.209 39.0976C38.9752 38.8477 38.8583 38.5736 38.8583 38.2753C38.8583 38.0657 38.9067 37.8601 39.0034 37.6585C39.1002 37.4489 39.2372 37.2433 39.4146 37.0418C39.1324 36.8725 38.9067 36.6427 38.7374 36.3524C38.5681 36.0541 38.4834 35.6954 38.4834 35.2761C38.4834 34.8166 38.5802 34.4336 38.7736 34.1273C38.9752 33.8209 39.2413 33.5911 39.5718 33.438C39.9024 33.2767 40.2732 33.1961 40.6844 33.1961H40.89C41.1721 33.1961 41.4301 33.2364 41.6639 33.317H43.8165V34.1998L42.5105 34.0184C42.6798 34.1636 42.8168 34.345 42.9216 34.5626C43.0265 34.7722 43.0789 35.0302 43.0789 35.3366C43.0789 35.772 42.9781 36.1388 42.7765 36.4371C42.583 36.7354 42.321 36.9652 41.9905 37.1264C41.6599 37.2796 41.2931 37.3562 40.89 37.3562H40.6844C40.5796 37.3562 40.4788 37.3521 40.3821 37.3441C40.2853 37.328 40.1886 37.3118 40.0918 37.2957C39.858 37.5537 39.7411 37.8077 39.7411 38.0576C39.7411 38.3801 39.9669 38.5413 40.4183 38.5413H41.7728C42.3533 38.5413 42.8088 38.6703 43.1393 38.9283C43.4699 39.1863 43.6351 39.5612 43.6351 40.053ZM40.89 36.4976C41.2044 36.4976 41.4825 36.3968 41.7244 36.1952C41.9663 35.9937 42.0872 35.6873 42.0872 35.2761C42.0872 34.873 41.9663 34.5707 41.7244 34.3691C41.4825 34.1595 41.2044 34.0547 40.89 34.0547H40.6844C40.3619 34.0547 40.0797 34.1595 39.8379 34.3691C39.596 34.5707 39.4751 34.873 39.4751 35.2761C39.4751 35.6873 39.596 35.9937 39.8379 36.1952C40.0797 36.3968 40.3619 36.4976 40.6844 36.4976H40.89Z" fill="#1C162E"/>
<path d="M49.5915 38.9525C49.2287 39.1299 48.8659 39.2508 48.5031 39.3153C48.1403 39.3879 47.8057 39.4241 47.4993 39.4241C46.6367 39.4241 45.9917 39.1782 45.5644 38.6864C45.1452 38.1947 44.9356 37.5215 44.9356 36.6669V35.9413C44.9356 35.1109 45.1452 34.4457 45.5644 33.9459C45.9917 33.446 46.5923 33.1961 47.3663 33.1961C47.7775 33.1961 48.1524 33.2807 48.491 33.45C48.8377 33.6113 49.1118 33.8612 49.3133 34.1998C49.5229 34.5304 49.6278 34.9577 49.6278 35.4817C49.6278 35.8203 49.5794 36.2073 49.4826 36.6427H45.9151V36.6669C45.9151 37.2796 46.0401 37.7432 46.29 38.0576C46.548 38.372 46.9592 38.5292 47.5235 38.5292C47.7815 38.5292 48.0637 38.497 48.3701 38.4325C48.6845 38.368 48.9908 38.2672 49.2891 38.1302L49.5915 38.9525ZM47.3663 34.0668C46.8987 34.0668 46.544 34.22 46.3021 34.5263C46.0683 34.8247 45.9393 35.2479 45.9151 35.7961H48.624C48.6482 35.651 48.6603 35.514 48.6603 35.385C48.6603 34.9335 48.5313 34.6029 48.2733 34.3933C48.0234 34.1756 47.721 34.0668 47.3663 34.0668Z" fill="#1C162E"/>
<path d="M21.2377 8.0622C20.6812 8.0622 20.23 8.51338 20.23 9.06997C20.23 9.62656 20.6812 10.0777 21.2377 10.0777H29.2591C29.8157 10.0777 30.2669 9.62656 30.2669 9.06997C30.2669 8.51338 29.8157 8.0622 29.2591 8.0622H21.2377Z" fill="#1C162E"/>
<path d="M21.2786 12.1603C20.722 12.1603 20.2708 12.6115 20.2708 13.1681C20.2708 13.7247 20.722 14.1759 21.2786 14.1759H29.2999C29.8565 14.1759 30.3077 13.7247 30.3077 13.1681C30.3077 12.6115 29.8565 12.1603 29.2999 12.1603H21.2786Z" fill="#1C162E"/>
<path fill-rule="evenodd" clip-rule="evenodd" d="M16.1989 2.01555C16.1989 0.902391 17.1012 0 18.2144 0H32.3232C33.4364 0 34.3388 0.902391 34.3388 2.01555V16.1244C34.3388 17.2376 33.4364 18.1399 32.3232 18.1399H18.2144C17.1012 18.1399 16.1989 17.2376 16.1989 16.1244V2.01555ZM18.2144 2.01555H20.23V3.02332C20.23 4.69305 21.5835 6.04665 23.2533 6.04665H27.2844C28.9542 6.04665 30.3077 4.69305 30.3077 3.02332V2.01555H32.3232V16.1244H18.2144V2.01555ZM22.2455 3.02332V2.01555H28.2921V3.02332C28.2921 3.5799 27.841 4.0311 27.2844 4.0311H23.2533C22.6967 4.0311 22.2455 3.5799 22.2455 3.02332Z" fill="#1C162E"/>
</svg>
