<svg width="24" height="24" viewBox="0 0 24 24" fill="none" xmlns="http://www.w3.org/2000/svg">
<path fill-rule="evenodd" clip-rule="evenodd" d="M3 5C3 3.89543 3.89543 3 5 3H19C20.1046 3 21 3.89543 21 5V19C21 20.1046 20.1046 21 19 21H5C3.89543 21 3 20.1046 3 19V5ZM5 5H7V6C7 7.65685 8.34315 9 10 9H14C15.6569 9 17 7.65685 17 6V5H19V19H5V5ZM9 6V5H15V6C15 6.55228 14.5523 7 14 7H10C9.44772 7 9 6.55228 9 6ZM8 11C7.44772 11 7 11.4477 7 12C7 12.5523 7.44772 13 8 13H15.9595C16.5118 13 16.9595 12.5523 16.9595 12C16.9595 11.4477 16.5118 11 15.9595 11H8ZM8.04053 15.0665C7.48824 15.0665 7.04053 15.5142 7.04053 16.0665C7.04053 16.6188 7.48824 17.0665 8.04053 17.0665H16C16.5523 17.0665 17 16.6188 17 16.0665C17 15.5142 16.5523 15.0665 16 15.0665H8.04053Z" fill="#1C162E"/>
</svg>
