<svg width="24" height="24" viewBox="0 0 24 24" fill="none" xmlns="http://www.w3.org/2000/svg">
<path fill-rule="evenodd" clip-rule="evenodd" d="M18.2 5.8C18.7523 5.8 19.2 6.24771 19.2 6.8V17.4C19.2 17.9523 18.7523 18.4 18.2 18.4H9.4C8.84772 18.4 8.4 17.9523 8.4 17.4V15.7C8.4 15.2029 7.99706 14.8 7.5 14.8C7.00294 14.8 6.6 15.2029 6.6 15.7V19.2C6.6 19.7523 7.04772 20.2 7.6 20.2H20C20.5523 20.2 21 19.7523 21 19.2V5C21 4.44772 20.5523 4 20 4H7.6C7.04772 4 6.6 4.44772 6.6 5V8.5C6.6 8.99706 7.00294 9.4 7.5 9.4C7.99706 9.4 8.4 8.99706 8.4 8.5V6.8C8.4 6.24772 8.84772 5.8 9.4 5.8H18.2ZM12.3305 15.9184C12.6819 16.2699 13.2518 16.2699 13.6033 15.9184L16.7145 12.8071C17.105 12.4166 17.105 11.7834 16.7145 11.3929L13.6033 8.28166C13.2518 7.93019 12.6819 7.93019 12.3305 8.28167C11.979 8.63314 11.979 9.20298 12.3305 9.55445L13.976 11.2H3.9C3.40294 11.2 3 11.6029 3 12.1C3 12.5971 3.40294 13 3.9 13H13.9761L12.3305 14.6457C11.979 14.9971 11.979 15.567 12.3305 15.9184Z" fill="#1C162E"/>
</svg>
