<svg width="20" height="20" viewBox="0 0 20 20" fill="none" xmlns="http://www.w3.org/2000/svg">
<path d="M18.4863 9.86329L10.4414 1.82423C10.3835 1.76619 10.3147 1.72015 10.239 1.68873C10.1632 1.65731 10.082 1.64114 10 1.64114C9.91802 1.64114 9.83682 1.65731 9.76108 1.68873C9.68534 1.72015 9.61654 1.76619 9.55861 1.82423L1.5137 9.86329C1.27932 10.0977 1.14651 10.416 1.14651 10.7481C1.14651 11.4375 1.70706 11.9981 2.39651 11.9981H3.24416V17.7344C3.24416 18.0801 3.52346 18.3594 3.86916 18.3594H8.75002V13.9844H10.9375V18.3594H16.1309C16.4766 18.3594 16.7559 18.0801 16.7559 17.7344V11.9981H17.6035C17.9356 11.9981 18.2539 11.8672 18.4883 11.6309C18.9746 11.1426 18.9746 10.3516 18.4863 9.86329Z" fill="#3570EC" fill-opacity="0.54"/>
</svg>
