<svg width="24" height="24" viewBox="0 0 24 24" fill="none" xmlns="http://www.w3.org/2000/svg">
<path fill-rule="evenodd" clip-rule="evenodd" d="M11.2 9.68376C11.2 10.5678 10.4832 11.2838 9.6 11.2838C8.7168 11.2838 8 10.5678 8 9.68376C8 8.79976 8.7168 8.08376 9.6 8.08376C10.4832 8.08376 11.2 8.79976 11.2 9.68376ZM11.2 14.4838C11.2 15.3678 10.4832 16.0838 9.6 16.0838C8.7168 16.0838 8 15.3678 8 14.4838C8 13.5998 8.7168 12.8838 9.6 12.8838C10.4832 12.8838 11.2 13.5998 11.2 14.4838ZM16 9.68376C16 10.5678 15.2832 11.2838 14.4 11.2838C13.5168 11.2838 12.8 10.5678 12.8 9.68376C12.8 8.79976 13.5168 8.08376 14.4 8.08376C15.2832 8.08376 16 8.79976 16 9.68376ZM16 14.4838C16 15.3678 15.2832 16.0838 14.4 16.0838C13.5168 16.0838 12.8 15.3678 12.8 14.4838C12.8 13.5998 13.5168 12.8838 14.4 12.8838C15.2832 12.8838 16 13.5998 16 14.4838ZM18.4 17.5998C18.4 18.0422 18.0416 18.3998 17.6 18.3998H6.4C5.9584 18.3998 5.6 18.0422 5.6 17.5998V6.39976C5.6 5.95816 5.9584 5.59976 6.4 5.59976H17.6C18.0416 5.59976 18.4 5.95816 18.4 6.39976V17.5998ZM18.4 3.99976H5.6C4.7168 3.99976 4 4.71656 4 5.59976V18.3998C4 19.2838 4.7168 19.9998 5.6 19.9998H18.4C19.284 19.9998 20 19.2838 20 18.3998V5.59976C20 4.71656 19.284 3.99976 18.4 3.99976Z" fill="#1C162E"/>
</svg>
